<svg width="744" height="699" viewBox="0 0 744 699" fill="none" xmlns="http://www.w3.org/2000/svg"><g filter="url(#filter0_d_98)"><path d="M723.675 74.557c2.661-33.258-27.378-59.742-60.041-52.935L59.987 147.417c-25.849 5.386-43.054 29.943-39.289 56.078l54.86 380.817c3.275 22.731 21.614 40.309 44.464 42.617l504.182 50.939c27.881 2.817 52.633-17.826 54.867-45.759l44.604-557.552z" fill="url(#paint0_linear_98)"/></g><path d="M554.136 242.239c-10.433-5.787-18.835-13.748-25.206-23.883L481 212.235l37.42-30.57c.039-11.971 2.952-23.173 8.739-33.606 4.573-8.245 10.524-15.204 17.851-20.877 7.327-5.673 15.21-9.718 23.647-12.135 8.436-2.416 17.265-3.158 26.484-2.225 9.22.933 17.952 3.686 26.198 8.259 8.245 4.574 15.204 10.524 20.877 17.852 5.673 7.327 9.718 15.209 12.134 23.646 2.417 8.437 3.159 17.266 2.226 26.485-.933 9.22-3.686 17.952-8.26 26.198-4.573 8.245-10.523 15.204-17.851 20.877-7.327 5.673-15.209 9.717-23.646 12.134-8.437 2.417-17.266 3.159-26.485 2.226-9.22-.933-17.952-3.686-26.198-8.26zm47.074-37.262l-8.077-4.481-6.783 1.519c-3.227-3.11-6.067-8.949-8.521-17.516-2.454-8.568-3.136-15.025-2.046-19.371l6.559-2.304 4.48-8.077c.794-1.43 1.082-3.141.866-5.131-.216-1.99-.76-3.639-1.63-4.947-.87-1.308-1.697-1.849-2.482-1.624l-9.222 2.641c-5.101 1.461-8.42 6.304-9.956 14.529-1.537 8.225-.853 17.406 2.051 27.543 2.904 10.138 7.185 18.289 12.843 24.452 5.658 6.164 11.037 8.516 16.139 7.054l9.221-2.641c.785-.225 1.201-1.122 1.246-2.692.046-1.57-.366-3.257-1.237-5.06-.87-1.803-2.02-3.101-3.451-3.894zM147.803 242.233c-45.663-24.652-84.316 23.585-61.516 65.2 17.121 31.249 112.528 42.533 122.174 45.512 2.724-9.756 41.153-94.368 24.032-125.617-22.628-41.299-80.843-36.873-84.69 14.905zM476.648 510.832c5.221-33.805 35.568-54.742 69.738-49.465 34.17 5.278 56.787 34.394 51.566 68.2-5.221 33.806-35.569 54.743-69.739 49.465-6.141-.948-11.899-2.668-17.199-5.039a4.904 4.904 0 00-3.272-.273l-12.862 3.463a4.912 4.912 0 01-5.856-2.983 4.903 4.903 0 01-.289-2.359l1.332-10.84a4.902 4.902 0 00-1.096-3.709c-10.167-12.376-15.054-28.779-12.323-46.46zm43.755-4.567l-22.182 25.512c-2.125 2.451.732 6.02 3.585 4.482l21.387-11.57a3.679 3.679 0 014.385.662l12.528 12.817a9.207 9.207 0 006.85 2.766 9.203 9.203 0 006.678-3.16l22.182-25.512c2.133-2.45-.731-6.021-3.585-4.482l-21.387 11.57a3.684 3.684 0 01-4.384-.662l-12.527-12.825a9.211 9.211 0 00-6.851-2.766 9.207 9.207 0 00-6.678 3.16l-.001.008z" fill="#F5F5F5" fill-opacity=".05"/><defs><linearGradient id="paint0_linear_98" x1="782.793" y1="-243.169" x2="139.644" y2="830.636" gradientUnits="userSpaceOnUse"><stop offset=".034" stop-color="#FF8F00"/><stop offset="1" stop-color="#0054DC"/></linearGradient><filter id="filter0_d_98" x=".182" y=".548" width="743.658" height="697.578" filterUnits="userSpaceOnUse" color-interpolation-filters="sRGB"><feFlood flood-opacity="0" result="BackgroundImageFix"/><feColorMatrix in="SourceAlpha" values="0 0 0 0 0 0 0 0 0 0 0 0 0 0 0 0 0 0 127 0" result="hardAlpha"/><feOffset/><feGaussianBlur stdDeviation="10"/><feComposite in2="hardAlpha" operator="out"/><feColorMatrix values="0 0 0 0 0.604167 0 0 0 0 0.604167 0 0 0 0 0.604167 0 0 0 0.8 0"/><feBlend in2="BackgroundImageFix" result="effect1_dropShadow_98"/><feBlend in="SourceGraphic" in2="effect1_dropShadow_98" result="shape"/></filter></defs></svg>