<svg width="28" height="31" viewBox="0 0 28 31" fill="none" xmlns="http://www.w3.org/2000/svg">
<path d="M11.25 0.800018C11.502 0.800018 11.7436 0.900108 11.9218 1.07827C12.1 1.25643 12.2001 1.49806 12.2001 1.75002V5.55002C12.2001 5.80197 12.1 6.04361 11.9218 6.22177C11.7436 6.39993 11.502 6.50002 11.25 6.50002C10.9981 6.50002 10.7565 6.39993 10.5783 6.22177C10.4001 6.04361 10.3 5.80197 10.3 5.55002V1.75002C10.3 1.49806 10.4001 1.25643 10.5783 1.07827C10.7565 0.900108 10.9981 0.800018 11.25 0.800018ZM3.85905 3.85902C3.9473 3.77055 4.05213 3.70036 4.16755 3.65246C4.28296 3.60457 4.40669 3.57992 4.53165 3.57992C4.65661 3.57992 4.78034 3.60457 4.89575 3.65246C5.01117 3.70036 5.116 3.77055 5.20425 3.85902L7.89085 6.54752C7.98158 6.63515 8.05396 6.73998 8.10375 6.85588C8.15353 6.97179 8.17974 7.09645 8.18084 7.22259C8.18193 7.34873 8.1579 7.47382 8.11013 7.59057C8.06236 7.70733 7.99182 7.8134 7.90262 7.90259C7.81343 7.99179 7.70736 8.06233 7.59061 8.1101C7.47385 8.15787 7.34876 8.1819 7.22262 8.18081C7.09648 8.17971 6.97182 8.1535 6.85592 8.10372C6.74001 8.05393 6.63518 7.98155 6.54755 7.89082L3.86095 5.20422C3.68285 5.02607 3.5828 4.78447 3.5828 4.53257C3.5828 4.28066 3.68285 4.03907 3.86095 3.86092L3.85905 3.85902ZM18.6411 3.85902C18.7295 3.94727 18.7997 4.0521 18.8476 4.16751C18.8955 4.28293 18.9201 4.40666 18.9201 4.53162C18.9201 4.65658 18.8955 4.78031 18.8476 4.89572C18.7997 5.01114 18.7295 5.11597 18.6411 5.20422L15.9507 7.89082C15.863 7.98155 15.7582 8.05393 15.6423 8.10372C15.5264 8.1535 15.4017 8.17971 15.2756 8.18081C15.1494 8.1819 15.0243 8.15787 14.9076 8.1101C14.7908 8.06233 14.6848 7.99179 14.5956 7.90259C14.5064 7.8134 14.4358 7.70733 14.3881 7.59057C14.3403 7.47382 14.3163 7.34873 14.3174 7.22259C14.3185 7.09645 14.3447 6.97179 14.3945 6.85588C14.4442 6.73998 14.5166 6.63515 14.6074 6.54752L17.294 3.86092C17.4721 3.68282 17.7137 3.58277 17.9656 3.58277C18.2175 3.58277 18.4591 3.68282 18.6373 3.86092L18.6411 3.85902ZM0.800049 11.25C0.800049 10.9981 0.900138 10.7564 1.0783 10.5783C1.25646 10.4001 1.49809 10.3 1.75005 10.3H5.55005C5.80201 10.3 6.04364 10.4001 6.2218 10.5783C6.39996 10.7564 6.50005 10.9981 6.50005 11.25C6.50005 11.502 6.39996 11.7436 6.2218 11.9218C6.04364 12.0999 5.80201 12.2 5.55005 12.2H1.75005C1.49809 12.2 1.25646 12.0999 1.0783 11.9218C0.900138 11.7436 0.800049 11.502 0.800049 11.25ZM11.25 12.2608V29.8548C11.2497 30.043 11.3052 30.227 11.4096 30.3835C11.514 30.54 11.6625 30.6621 11.8363 30.7341C12.0101 30.8062 12.2013 30.825 12.3859 30.7882C12.5704 30.7514 12.7398 30.6606 12.8727 30.5274L17.7367 25.6634C18.4491 24.9507 19.4155 24.5502 20.4233 24.55H26.5641C26.7613 24.5499 26.9535 24.4884 27.1142 24.374C27.2748 24.2597 27.3959 24.0982 27.4607 23.9119C27.5254 23.7256 27.5306 23.5238 27.4755 23.3345C27.4203 23.1451 27.3077 22.9776 27.1531 22.8552L12.7891 11.5141C12.6489 11.4034 12.4805 11.3344 12.3029 11.3151C12.1254 11.2957 11.946 11.3268 11.7854 11.4048C11.6247 11.4827 11.4893 11.6044 11.3946 11.7558C11.2999 11.9072 11.2498 12.0822 11.25 12.2608Z" fill="white"/>
</svg>
