<svg width="39" height="39" viewBox="0 0 39 39" fill="none" xmlns="http://www.w3.org/2000/svg"><path d="M19.65 36.496a2.828 2.828 0 002.733-2.415h-5.571a2.828 2.828 0 002.839 2.415zM35.38 29.982l-.36-.318a15.223 15.223 0 01-2.658-3.104 13.38 13.38 0 01-1.43-5.095v-5.232a11.564 11.564 0 00-.17-1.896 7.944 7.944 0 01-6.345-7.796v-.668A11.196 11.196 0 0020.9 4.814V3.48a1.414 1.414 0 00-2.828 0v1.388a11.45 11.45 0 00-9.85 11.366v5.232a13.378 13.378 0 01-1.43 5.096 15.254 15.254 0 01-2.617 3.103l-.36.318v2.987H35.38v-2.987zM32.362 11.837a5.296 5.296 0 100-10.593 5.296 5.296 0 000 10.593z" fill="#3C4856"/></svg>