<svg width="34" height="34" viewBox="0 0 34 34" fill="none" xmlns="http://www.w3.org/2000/svg"><path d="M31.848 10.614a16.123 16.123 0 00-3.463-5.163 15.963 15.963 0 00-5.152-3.47 15.993 15.993 0 00-6.24-1.254h-.072a16.033 16.033 0 00-11.378 4.77 16.033 16.033 0 00-3.422 5.145 16.209 16.209 0 00-1.232 6.302c.01 2.5.609 4.982 1.725 7.202v5.476c0 .915.743 1.657 1.654 1.657h5.47a16.13 16.13 0 007.187 1.73H17c2.155 0 4.24-.418 6.208-1.236a15.968 15.968 0 005.134-3.43 16.024 16.024 0 003.47-5.116 16.163 16.163 0 001.29-6.287 16.207 16.207 0 00-1.254-6.327zM9.802 18.596a1.729 1.729 0 010-3.458 1.729 1.729 0 010 3.458zm7.191 0a1.729 1.729 0 010-3.458 1.729 1.729 0 010 3.458zm7.191 0a1.729 1.729 0 010-3.458 1.729 1.729 0 010 3.458z" fill="#3C4856"/></svg>