<svg width="35" height="38" viewBox="0 0 35 38" fill="none" xmlns="http://www.w3.org/2000/svg"><path d="M19.15 11.13c1.325 0 2.597.585 3.534 1.629.937 1.043 1.464 2.459 1.464 3.935 0 .492.175.963.488 1.311.312.348.736.544 1.178.544.442 0 .866-.196 1.178-.544.313-.348.488-.82.488-1.311 0-2.46-.878-4.819-2.44-6.558-1.562-1.74-3.681-2.717-5.89-2.717-.442 0-.866.196-1.179.544-.312.347-.488.82-.488 1.311 0 .492.176.964.488 1.312.313.348.737.543 1.178.543z" fill="#3C4856"/><path d="M19.15 3.71c3.093 0 6.06 1.368 8.246 3.803 2.187 2.435 3.416 5.737 3.416 9.18 0 .493.176.964.488 1.312.313.348.736.544 1.178.544.442 0 .866-.196 1.178-.544.313-.348.488-.82.488-1.311 0-4.428-1.58-8.674-4.391-11.805C26.94 1.76 23.126 0 19.149 0c-.441 0-.865.195-1.178.543-.312.348-.488.82-.488 1.312 0 .492.176.964.488 1.311.313.348.737.544 1.178.544zM33.727 25.8a1.884 1.884 0 00-.46-.775 1.616 1.616 0 00-.74-.43l-9.996-2.54a1.503 1.503 0 00-.822.023 1.636 1.636 0 00-.711.458c-.233.241-.25.26-1.333 2.56-3.593-1.843-6.473-5.062-8.114-9.07 2.116-1.187 2.133-1.187 2.35-1.466.194-.221.335-.493.41-.791.077-.298.084-.613.022-.915l-2.282-11a1.934 1.934 0 00-.386-.823c-.19-.234-.43-.41-.697-.512a5.795 5.795 0 00-1.2-.334A5.935 5.935 0 008.486 0C6.454 0 4.504.899 3.067 2.499 1.63 4.1.822 6.27.822 8.532c.01 7.573 2.715 14.833 7.525 20.188 4.81 5.355 11.331 8.367 18.133 8.377 1.007 0 2.003-.22 2.933-.65a7.663 7.663 0 002.487-1.85 8.655 8.655 0 001.661-2.767 9.377 9.377 0 00.583-3.265 8.795 8.795 0 00-.416-2.764z" fill="#3C4856"/></svg>