<svg width="23" height="23" viewBox="0 0 23 23" fill="none" xmlns="http://www.w3.org/2000/svg">
<path d="M19.5454 3.56762C18.4985 2.54507 17.2517 1.73439 15.8778 1.18282C14.5039 0.631245 13.0302 0.34981 11.5428 0.354911C5.30996 0.354911 0.230354 5.26927 0.224645 11.3024C0.224645 13.2347 0.747021 15.1146 1.73325 16.7789L0.133301 22.4544L6.13348 20.9323C7.79339 21.8064 9.653 22.2647 11.5428 22.2651H11.5485C17.7827 22.2651 22.8609 17.3508 22.8666 11.3121C22.8681 9.87292 22.5752 8.44771 22.005 7.11855C21.4347 5.7894 20.5983 4.58258 19.544 3.56762H19.5454ZM11.5428 20.4115C9.85719 20.4121 8.20258 19.9731 6.75291 19.1408L6.41037 18.9419L2.8508 19.8452L3.80135 16.4847L3.5787 16.1381C2.63643 14.6882 2.13809 13.0096 2.14145 11.2969C2.14145 6.28861 6.36184 2.20298 11.5485 2.20298C12.7841 2.20083 14.008 2.4354 15.1495 2.89316C16.291 3.35092 17.3276 4.02281 18.1995 4.8701C19.0745 5.71409 19.7681 6.71737 20.2404 7.82208C20.7127 8.92678 20.9543 10.111 20.9513 11.3066C20.9455 16.3328 16.7251 20.4115 11.5428 20.4115ZM16.7023 13.5966C16.4211 13.4599 15.0324 12.7983 14.7712 12.7044C14.5115 12.6146 14.3216 12.5676 14.1361 12.8411C13.9463 13.1132 13.4039 13.7334 13.2412 13.9115C13.0785 14.0952 12.9101 14.116 12.6275 13.9806C12.3463 13.8425 11.4343 13.5552 10.3553 12.6201C9.51322 11.895 8.94946 10.9972 8.78104 10.7251C8.61834 10.4516 8.76534 10.3052 8.90664 10.1684C9.03081 10.0469 9.18781 9.848 9.32911 9.69054C9.47183 9.53308 9.51893 9.41706 9.6117 9.23474C9.70448 9.04966 9.66023 8.8922 9.5903 8.75546C9.51893 8.61872 8.95517 7.26927 8.71682 6.72507C8.48845 6.18778 8.25581 6.26237 8.08169 6.25546C7.91898 6.24579 7.72916 6.24579 7.53933 6.24579C7.39598 6.24924 7.25492 6.28133 7.12499 6.34004C6.99506 6.39874 6.87908 6.48281 6.78431 6.58695C6.52455 6.86043 5.79808 7.52204 5.79808 8.87148C5.79808 10.2209 6.81143 11.5179 6.95415 11.7016C7.09403 11.8853 8.94375 14.6463 11.7826 15.8342C12.4534 16.1173 12.9815 16.2845 13.3939 16.4115C14.0719 16.6215 14.6842 16.5897 15.1723 16.522C15.7147 16.4419 16.8436 15.8591 17.082 15.2195C17.316 14.5787 17.316 14.0317 17.2447 13.9171C17.1747 13.801 16.9849 13.7334 16.7023 13.5966Z" fill="white"/>
</svg>
