<svg width="131" height="27" viewBox="0 0 131 27" fill="none" xmlns="http://www.w3.org/2000/svg">
<g clip-path="url(#clip0_11:467)">
<path fill-rule="evenodd" clip-rule="evenodd" d="M40.2379 0H4.11821C1.83185 0 -0.0182695 1.89597 -0.000359335 4.19694V18.1868C-0.000359335 20.5062 1.85027 22.384 4.13612 22.384H21.2436L29.0627 26.8019L27.2847 22.384H40.2379C42.5237 22.384 44.3741 20.5065 44.3741 18.1871V4.19694C44.3741 1.87754 42.5235 0 40.2379 0ZM3.35626 3.24C2.84812 3.27635 2.46715 3.46067 2.21334 3.81038C1.95927 4.14164 1.86844 4.56508 1.92294 5.04355C2.99345 11.9467 3.99105 16.604 4.91649 19.0153C5.27904 19.8987 5.69635 20.3222 6.18632 20.2856C6.94827 20.2303 7.85529 19.1625 8.92555 17.0824C9.48793 15.9043 10.3589 14.1374 11.5379 11.7811C12.5178 15.2599 13.8601 17.8743 15.5472 19.6228C16.019 20.1197 16.5087 20.3406 16.9803 20.3037C17.3978 20.2671 17.7243 20.0462 17.9418 19.6412C18.1234 19.2915 18.1958 18.8862 18.1595 18.4262C18.0508 16.7512 18.214 14.4133 18.6677 11.413C19.1392 8.32041 19.7197 6.09291 20.4272 4.76758C20.5725 4.49161 20.6268 4.21538 20.6089 3.88411C20.5725 3.46067 20.3911 3.11097 20.0465 2.83474C19.7016 2.55877 19.3206 2.42974 18.9033 2.46661C18.3773 2.50347 17.9781 2.76127 17.7059 3.27661C16.5814 5.35665 15.7831 8.72541 15.3115 13.4008C14.622 11.6336 14.0412 9.55385 13.5881 7.10567C13.3885 6.0197 12.8985 5.50411 12.1003 5.5594C11.556 5.59627 11.1024 5.9644 10.7399 6.66381L6.76686 14.3396C6.11366 11.6708 5.49678 8.41258 4.9344 4.56508C4.80749 3.60788 4.28145 3.16601 3.35626 3.23974V3.24ZM38.3148 4.56508C39.6028 4.84131 40.5644 5.54071 41.2176 6.70041C41.7981 7.69474 42.0882 8.89105 42.0882 10.3267C42.0882 12.2227 41.6167 13.9533 40.6733 15.5362C39.5847 17.3768 38.1698 18.2974 36.41 18.2974C36.1017 18.2974 35.7752 18.2606 35.4303 18.1868C34.1423 17.9109 33.1808 17.2115 32.5276 16.0518C31.9473 15.0393 31.6569 13.8243 31.6569 12.4068C31.6569 10.5111 32.1287 8.78045 33.0718 7.21601C34.1786 5.37534 35.5935 4.45474 37.3352 4.45474C37.6437 4.45474 37.9702 4.49161 38.3148 4.56508ZM37.5529 14.5239C38.2243 13.9164 38.6776 13.0143 38.9317 11.7995C39.0044 11.3761 39.0586 10.9158 39.0586 10.4373C39.0586 9.90355 38.9499 9.33291 38.7321 8.76228C38.4599 8.04418 38.0971 7.65762 37.6616 7.56545C37.0087 7.43668 36.3736 7.80508 35.7752 8.70698C35.2852 9.40639 34.9769 10.1427 34.8137 10.8974C34.7228 11.3208 34.6865 11.7811 34.6865 12.2414C34.6865 12.7752 34.7952 13.3458 35.013 13.9164C35.2852 14.6343 35.648 15.0208 36.0835 15.113C36.5369 15.2049 37.0268 15.0024 37.5529 14.5237V14.5239ZM29.8431 6.70015C29.1899 5.54045 28.2102 4.84105 26.9404 4.56482C26.5955 4.49135 26.2692 4.45448 25.9604 4.45448C24.219 4.45448 22.8041 5.37482 21.6975 7.21575C20.7539 8.78019 20.2826 10.5108 20.2826 12.4068C20.2826 13.8243 20.5728 15.039 21.1531 16.0515C21.8063 17.2112 22.7678 17.9106 24.0558 18.1866C24.4004 18.2603 24.7269 18.2972 25.0357 18.2972C26.7953 18.2972 28.2102 17.3768 29.2986 15.5359C30.2422 13.953 30.7135 12.2224 30.7135 10.3265C30.7135 8.89079 30.4234 7.69422 29.8431 6.70015ZM27.557 11.799C27.3032 13.014 26.8495 13.9162 26.1784 14.5234C25.6524 15.0021 25.1626 15.2046 24.709 15.1127C24.2735 15.0206 23.9107 14.634 23.6385 13.9159C23.421 13.3455 23.312 12.7749 23.312 12.2411C23.312 11.7808 23.3483 11.3205 23.4392 10.8971C23.6024 10.1424 23.9107 9.40613 24.4004 8.70672C24.9991 7.80482 25.6342 7.43642 26.2871 7.56545C26.7226 7.65736 27.0854 8.04392 27.3577 8.76202C27.5751 9.33265 27.6841 9.90329 27.6841 10.4371C27.6841 10.9155 27.6478 11.3758 27.557 11.7993V11.799Z" fill="#7F54B3"/>
<path fill-rule="evenodd" clip-rule="evenodd" d="M48.9644 6.53452C47.7488 7.74952 47.1504 9.29579 47.1504 11.1736C47.1504 13.1799 47.7488 14.8183 48.9463 16.0518C50.1437 17.2849 51.7037 17.9106 53.6449 17.9106C54.2072 17.9106 54.8423 17.8187 55.5316 17.6162V14.634C54.8968 14.8183 54.3523 14.9102 53.8808 14.9102C52.9193 14.9102 52.1573 14.579 51.5768 13.9346C50.9962 13.2721 50.7058 12.3883 50.7058 11.2657C50.7058 10.2164 50.9962 9.35109 51.5586 8.68855C52.1391 8.00732 52.8466 7.67605 53.7175 7.67605C54.2799 7.67605 54.8784 7.76795 55.5316 7.95202V4.97008C54.9329 4.80444 54.2617 4.73071 53.554 4.73071C51.7037 4.71254 50.1798 5.32004 48.9644 6.53478V6.53452ZM61.5545 4.71228C59.8855 4.71228 58.5794 5.28291 57.636 6.40575C56.6927 7.52885 56.239 9.11172 56.239 11.1367C56.239 13.3274 56.7108 15.0024 57.636 16.1621C58.5612 17.3218 59.9219 17.9109 61.6998 17.9109C63.423 17.9109 64.7474 17.3215 65.6726 16.1621C66.5978 15.0024 67.0696 13.364 67.0696 11.2657C67.0696 9.16702 66.5977 7.54728 65.6547 6.40575C64.6931 5.28291 63.3325 4.71228 61.5545 4.71228ZM62.9878 14.2843C62.6611 14.7999 62.1714 15.0577 61.5545 15.0577C60.974 15.0577 60.5387 14.7999 60.2302 14.2843C59.9219 13.769 59.7768 12.738 59.7768 11.1736C59.7768 8.76202 60.3755 7.56545 61.5908 7.56545C62.8607 7.56545 63.5139 8.78045 63.5139 11.2286C63.4957 12.738 63.3143 13.769 62.9878 14.2843ZM76.0315 5.06198L75.3783 7.87855C75.2151 8.59639 75.0519 9.33265 74.9068 10.0874L74.544 12.0386C74.1993 10.0874 73.7275 7.76795 73.1291 5.06198H68.9202L67.3415 17.5978H70.4983L71.3508 8.96452L73.5098 17.5978H75.7593L77.8274 8.98295L78.7165 17.5978H82.0181L80.3492 5.06198H76.0313H76.0315ZM91.1434 5.06198L90.4904 7.87855C90.3269 8.59639 90.1637 9.33265 90.0186 10.0874L89.6558 12.0386C89.3111 10.0874 88.8393 7.76795 88.2409 5.06198H84.032L82.4536 17.5978H85.6101L86.4627 8.96452L88.6216 17.5978H90.8711L92.9213 8.98295L93.8102 17.5978H97.112L95.4428 5.06198H91.1434ZM101.412 12.6461H104.368V10.0505H101.412V7.74952H104.822V5.08067H98.0736V17.6162H104.84V14.9474H101.412V12.6459V12.6461ZM114.237 10.658C114.582 10.0874 114.764 9.49829 114.764 8.89105C114.764 7.71291 114.31 6.77415 113.403 6.09291C112.496 5.41194 111.244 5.06224 109.684 5.06224H105.802V17.5978H109.14V11.8914H109.194L111.897 17.5978H115.417L112.75 11.9467C113.384 11.6521 113.893 11.2286 114.237 10.658H114.237ZM109.122 10.4555V7.47355C109.92 7.49172 110.482 7.62075 110.827 7.87855C111.172 8.13609 111.335 8.54109 111.335 9.13015C111.335 9.99545 110.591 10.4373 109.122 10.4555ZM116.722 6.53478C115.507 7.74978 114.909 9.29579 114.909 11.1736C114.909 13.1799 115.507 14.8183 116.705 16.0518C117.902 17.2849 119.462 17.9106 121.404 17.9106C121.966 17.9106 122.601 17.8187 123.29 17.6162V14.634C122.656 14.8183 122.111 14.9102 121.639 14.9102C120.678 14.9102 119.916 14.579 119.335 13.9346C118.755 13.2721 118.465 12.3883 118.465 11.2657C118.465 10.2164 118.755 9.35109 119.317 8.68855C119.898 8.00732 120.605 7.67605 121.475 7.67605C122.038 7.67605 122.637 7.76795 123.29 7.95202V4.97008C122.692 4.80444 122.02 4.73071 121.313 4.73071C119.48 4.71254 117.938 5.32004 116.722 6.53478ZM127.554 14.9102V12.6277H130.51V10.0323H127.554V7.73135H130.982V5.06198H124.233V17.5978H131V14.9287H127.554V14.9105V14.9102Z" fill="black"/>
</g>
<defs>
<clipPath id="clip0_11:467">
<rect width="131" height="27" fill="white"/>
</clipPath>
</defs>
</svg>
