<svg width="94" height="27" viewBox="0 0 94 27" fill="none" xmlns="http://www.w3.org/2000/svg">
<g clip-path="url(#clip0_12:2)">
<path d="M10.622 0.944032C10.81 0.944032 10.904 1.03844 11.092 1.13284C9.964 1.60487 8.836 2.83214 8.272 5.4755L6.204 6.04193C6.862 4.15382 8.178 0.944032 10.622 0.944032ZM11.656 1.88809C11.844 2.45452 12.032 3.11536 12.032 4.15382C12.032 4.24823 12.032 4.24823 12.032 4.34263L9.306 5.09788C9.87 3.11536 10.81 2.26571 11.656 1.88809ZM14.1 3.58739L12.878 3.96501C12.878 3.87061 12.878 3.7762 12.878 3.68179C12.878 2.83214 12.784 2.17131 12.596 1.60487C13.254 1.79368 13.818 2.64333 14.1 3.58739ZM20.21 5.09788C20.21 5.00347 20.116 4.90907 20.022 4.90907C19.834 4.90907 17.86 4.72026 17.86 4.72026C17.86 4.72026 16.45 3.30417 16.262 3.20977C16.074 3.02096 15.792 3.11536 15.698 3.11536C15.698 3.11536 15.416 3.20977 14.946 3.39858C14.476 2.0769 13.63 0.849627 12.22 0.849627H12.126C11.75 0.283193 11.186 0.094382 10.716 0.094382C7.332 -2.35587e-05 5.734 4.24823 5.17 6.41956C4.418 6.60837 3.666 6.89159 2.82 7.1748C2.068 7.36361 2.068 7.45802 1.974 8.11886C1.88 8.59089 0 23.507 0 23.507L14.946 26.3391L23.03 24.5454C23.03 24.5454 20.21 5.28669 20.21 5.09788Z" fill="#8DB849"/>
<path d="M19.928 4.90906C19.834 4.90906 17.86 4.72025 17.86 4.72025C17.86 4.72025 16.45 3.30417 16.262 3.20976C16.168 3.11536 16.168 3.11536 16.074 3.11536L14.946 26.3391L23.03 24.5454C23.03 24.5454 20.21 5.28669 20.21 5.09787C20.21 5.00347 20.022 4.90906 19.928 4.90906Z" fill="#5A863E"/>
<path d="M12.22 9.44052L11.186 12.4615C11.186 12.4615 10.34 11.9895 9.21203 11.9895C7.61403 11.9895 7.52003 12.9335 7.52003 13.2167C7.52003 14.5384 11.092 15.1049 11.092 18.3146C11.092 20.8636 9.49403 22.4685 7.33203 22.4685C4.79403 22.4685 3.47803 20.8636 3.47803 20.8636L4.13603 18.5979C4.13603 18.5979 5.45203 19.7307 6.58003 19.7307C7.33203 19.7307 7.61403 19.1643 7.61403 18.6923C7.61403 16.8986 4.70003 16.8042 4.70003 13.8776C4.70003 11.423 6.48603 9.0629 9.96403 9.0629C11.562 8.96849 12.22 9.44052 12.22 9.44052Z" fill="#FFFFFE"/>
<path d="M32.524 15.0104C31.678 14.5384 31.302 14.1608 31.302 13.6888C31.302 13.0279 31.866 12.6503 32.806 12.6503C33.84 12.6503 34.78 13.1223 34.78 13.1223L35.532 10.8566C35.532 10.8566 34.874 10.2902 32.9 10.2902C30.08 10.2902 28.2 11.8951 28.2 14.1608C28.2 15.4825 29.14 16.4265 30.268 17.0874C31.208 17.6538 31.584 18.0314 31.584 18.5979C31.584 19.1643 31.114 19.7307 30.174 19.7307C28.858 19.7307 27.542 19.0699 27.542 19.0699L26.79 21.3356C26.79 21.3356 27.918 22.0909 29.892 22.0909C32.712 22.0909 34.78 20.6748 34.78 18.1258C34.78 16.7097 33.746 15.6713 32.524 15.0104ZM43.898 10.1958C42.488 10.1958 41.36 10.8566 40.514 11.8951L41.736 5.47548H38.54L35.438 21.8076H38.634L39.668 16.2377C40.044 14.1608 41.172 12.8391 42.206 12.8391C42.958 12.8391 43.24 13.3111 43.24 14.0664C43.24 14.5384 43.24 15.0104 43.146 15.4825L41.924 21.9021H45.12L46.342 15.2937C46.436 14.6328 46.53 13.7832 46.53 13.2167C46.53 11.3286 45.59 10.1958 43.898 10.1958ZM52.076 19.5419C50.948 19.5419 50.572 18.5979 50.572 17.465C50.572 15.6713 51.512 12.6503 53.204 12.6503C54.332 12.6503 54.708 13.5944 54.708 14.5384C54.708 16.6153 53.768 19.5419 52.076 19.5419ZM53.674 10.1958C49.82 10.1958 47.282 13.6888 47.282 17.5594C47.282 20.0139 48.786 21.9965 51.7 21.9965C55.46 21.9965 57.998 18.5979 57.998 14.6328C57.998 12.3671 56.682 10.1958 53.674 10.1958ZM63.074 19.6363C62.228 19.6363 61.758 19.1643 61.758 19.1643L62.322 16.1433C62.698 14.1608 63.732 12.8391 64.86 12.8391C65.8 12.8391 66.176 13.7832 66.176 14.6328C66.082 16.7097 64.86 19.6363 63.074 19.6363ZM66.176 10.1958C64.014 10.1958 62.792 12.0839 62.792 12.0839L62.98 10.3846H60.16C60.066 11.5174 59.784 13.3111 59.502 14.6328L57.246 26.3391H60.442L61.288 21.6188H61.382C61.382 21.6188 62.04 21.9965 63.262 21.9965C67.022 21.9965 69.466 18.1258 69.466 14.2552C69.466 12.1783 68.526 10.1958 66.176 10.1958ZM73.978 5.66429C72.944 5.66429 72.192 6.51394 72.192 7.5524C72.192 8.49646 72.756 9.1573 73.696 9.1573C74.73 9.1573 75.576 8.49646 75.576 7.26918C75.576 6.32513 74.918 5.66429 73.978 5.66429ZM69.56 21.8076H72.756L74.918 10.479H71.722L69.56 21.8076ZM83.002 10.479H80.746L80.84 9.91254C81.028 8.77967 81.686 7.83562 82.72 7.83562C83.284 7.83562 83.754 8.02443 83.754 8.02443L84.412 5.47548C84.412 5.47548 83.848 5.19226 82.72 5.19226C81.592 5.19226 80.464 5.47548 79.618 6.23072C78.49 7.17478 78.02 8.49646 77.738 9.81813L77.644 10.3846H76.14L75.67 12.8391H77.174L75.482 21.8076H78.678L80.37 12.8391H82.532L83.002 10.479ZM90.616 10.479C90.616 10.479 88.642 15.4825 87.702 18.2202C87.608 17.3706 86.95 10.479 86.95 10.479H83.566L85.446 20.8636C85.446 21.0524 85.446 21.2412 85.352 21.43C84.976 22.1853 84.318 22.8461 83.66 23.3181C83.096 23.7902 82.344 24.0734 81.874 24.2622L82.72 27C83.378 26.9055 84.694 26.3391 85.822 25.3007C87.232 23.979 88.642 21.8076 89.958 18.9755L93.812 10.5734L90.616 10.479Z" fill="#1A1919"/>
</g>
<defs>
<clipPath id="clip0_12:2">
<rect width="94" height="27" fill="white"/>
</clipPath>
</defs>
</svg>
