<svg width="119" height="27" viewBox="0 0 119 27" fill="none" xmlns="http://www.w3.org/2000/svg">
<path d="M69.0177 10.5521H64.3332V11.0455C65.7984 11.0455 66.0341 11.3573 66.0341 13.2023V16.5284C66.0341 18.3731 65.7986 18.711 64.3332 18.711C63.2083 18.5552 62.449 17.9573 61.4024 16.8141L60.1984 15.5151C61.8207 15.2289 62.6844 14.2158 62.6844 13.0724C62.6844 11.6437 61.4549 10.5524 59.1516 10.5524H54.5459V11.0455C56.0111 11.0455 56.2468 11.3573 56.2468 13.2023V16.5284C56.2468 18.3731 56.0111 18.711 54.5459 18.711V19.2046H59.7533V18.7107C58.2882 18.7107 58.0527 18.3731 58.0527 16.5284V15.5931H58.4973L61.4021 19.2046H69.0177C72.7597 19.2046 74.3822 17.2301 74.3822 14.8652C74.3822 12.5007 72.7599 10.5521 69.0177 10.5521ZM58.053 14.7872V11.3317H59.1256C60.303 11.3317 60.8267 12.1371 60.8267 13.0726C60.8267 13.9821 60.303 14.7872 59.1256 14.7872H58.053ZM69.0962 18.3992H68.9129C67.9711 18.3992 67.8402 18.1654 67.8402 16.9701V11.3317H69.0962C71.8179 11.3317 72.3148 13.3061 72.3148 14.8394C72.3148 16.4243 71.8174 18.3992 69.0962 18.3992ZM39.9703 15.7491L41.776 10.4481C42.2996 8.91506 42.064 8.4736 40.3891 8.4736V7.95367H45.3088V8.4736C43.6602 8.4736 43.2679 8.86314 42.6136 10.7601L39.63 19.6463H39.29L36.6204 11.5131L33.8987 19.6463H33.5585L30.6541 10.7601C30.0261 8.86314 29.6073 8.4736 28.0894 8.4736V7.95367H33.899V8.4736C32.355 8.4736 31.9359 8.83729 32.4858 10.4481L34.239 15.7488L36.8821 7.95367H37.3795L39.9703 15.7491ZM48.8674 19.5422C45.9889 19.5422 43.6337 17.4376 43.6337 14.865C43.6337 12.3189 45.9891 10.2138 48.8674 10.2138C51.7462 10.2138 54.1011 12.3189 54.1011 14.865C54.1011 17.4376 51.7462 19.5422 48.8674 19.5422ZM48.8674 11.0199C46.46 11.0199 45.6226 13.1762 45.6226 14.8652C45.6226 16.5805 46.46 18.711 48.8674 18.711C51.3013 18.711 52.1387 16.5805 52.1387 14.8652C52.1387 13.1762 51.3013 11.0199 48.8674 11.0199Z" fill="#00749A"/>
<path d="M80.8456 18.685V19.2046H74.8528V18.685C76.6064 18.685 76.9204 18.2433 76.9204 15.6446V11.4877C76.9204 8.8888 76.6064 8.47341 74.8528 8.47341V7.95349H80.2698C82.965 7.95349 84.4572 9.33072 84.4572 11.1757C84.4572 12.9688 82.965 14.3716 80.2698 14.3716H78.7782V15.6443C78.7782 18.2433 79.0919 18.685 80.8456 18.685ZM80.2698 8.8888H78.7782V13.4103H80.2698C81.7355 13.4103 82.4158 12.397 82.4158 11.1757C82.4158 9.92865 81.7355 8.8888 80.2698 8.8888ZM102.435 16.7622L102.304 17.23C102.069 18.0873 101.781 18.3993 99.9225 18.3993H99.556C98.1956 18.3993 97.9599 18.0873 97.9599 16.2427V15.0473C100.001 15.0473 100.158 15.2292 100.158 16.5806H100.656V12.7085H100.158C100.158 14.0596 100.001 14.2415 97.9599 14.2415V11.3315H99.3989C101.257 11.3315 101.545 11.6435 101.78 12.5008L101.912 12.9942H102.33L102.147 10.552H94.4532V11.0453C95.9184 11.0453 96.1543 11.3571 96.1543 13.2021V16.5282C96.1543 18.2158 95.9541 18.6409 94.7988 18.7016C93.7006 18.535 92.9468 17.9403 91.9151 16.8139L90.7112 15.5149C92.3339 15.2287 93.1976 14.2156 93.1976 13.0722C93.1976 11.6435 91.9676 10.5522 89.6648 10.5522H85.0591V11.0453C86.5243 11.0453 86.76 11.3571 86.76 13.2021V16.5282C86.76 18.373 86.5246 18.7108 85.0591 18.7108V19.2044H90.2668V18.7106C88.8016 18.7106 88.5659 18.373 88.5659 16.5282V15.5931H89.0108L91.9153 19.2046H102.671L102.828 16.7624H102.435V16.7622ZM88.5657 14.7873V11.3317H89.6383C90.816 11.3317 91.3396 12.1371 91.3396 13.0726C91.3396 13.9821 90.816 14.7873 89.6383 14.7873H88.5657ZM107.747 19.5423C106.7 19.5423 105.784 18.9967 105.392 18.6586C105.261 18.7888 105.026 19.1786 104.974 19.5423H104.476V15.9568H105C105.209 17.6714 106.413 18.685 107.957 18.685C108.794 18.685 109.474 18.2174 109.474 17.4379C109.474 16.7624 108.873 16.2425 107.8 15.7491L106.308 15.0476C105.261 14.5535 104.476 13.696 104.476 12.553C104.476 11.3059 105.654 10.2406 107.276 10.2406C108.14 10.2406 108.872 10.5524 109.318 10.9161C109.448 10.8123 109.579 10.5261 109.658 10.2141H110.155V13.2808H109.605C109.422 12.0593 108.742 11.046 107.355 11.046C106.622 11.046 105.942 11.4619 105.942 12.1117C105.942 12.7872 106.491 13.1506 107.747 13.7225L109.186 14.424C110.443 15.0215 110.94 15.9833 110.94 16.7626C110.94 18.3995 109.5 19.5425 107.747 19.5425V19.5423ZM115.807 19.5423C114.76 19.5423 113.844 18.9967 113.452 18.6586C113.321 18.7888 113.086 19.1786 113.034 19.5423H112.536V15.9568H113.059C113.269 17.6714 114.473 18.685 116.017 18.685C116.854 18.685 117.535 18.2174 117.535 17.4379C117.535 16.7624 116.933 16.2425 115.859 15.7491L114.368 15.0476C113.321 14.5535 112.536 13.696 112.536 12.553C112.536 11.3059 113.714 10.2406 115.336 10.2406C116.2 10.2406 116.932 10.5524 117.377 10.9161C117.508 10.8123 117.639 10.5261 117.717 10.2141H118.215V13.2808H117.665C117.482 12.0593 116.801 11.046 115.415 11.046C114.682 11.046 114.001 11.4619 114.001 12.1117C114.001 12.7872 114.551 13.1506 115.807 13.7225L117.246 14.424C118.503 15.0215 118.999 15.9833 118.999 16.7626C118.999 18.3995 117.56 19.5425 115.807 19.5425V19.5423Z" fill="#464342"/>
<path d="M1.91887 13.4038C1.91887 17.9555 4.58313 21.8887 8.44621 23.7528L2.92154 8.724C2.25926 10.1965 1.91759 11.7913 1.91887 13.404V13.4038ZM21.3187 12.8236C21.3187 11.4025 20.8045 10.4183 20.3634 9.65215C19.7763 8.70508 19.2262 7.90292 19.2262 6.95585C19.2262 5.89869 20.0336 4.91469 21.1708 4.91469C21.2222 4.91469 21.2708 4.92115 21.321 4.92392C19.2606 3.04962 16.5154 1.90546 13.5002 1.90546C9.45422 1.90546 5.89468 3.96646 3.8238 7.08854C4.09574 7.09639 4.35163 7.10215 4.56918 7.10215C5.78056 7.10215 7.65574 6.95608 7.65574 6.95608C8.28003 6.91962 8.35347 7.83 7.73012 7.90339C7.73012 7.90339 7.10258 7.97677 6.40439 8.013L10.6219 20.4683L13.1562 12.9212L11.3519 8.01277C10.7284 7.97631 10.1375 7.90292 10.1375 7.90292C9.51326 7.86669 9.58671 6.91915 10.2105 6.95585C10.2105 6.95585 12.1234 7.10169 13.2613 7.10169C14.4722 7.10169 16.3479 6.95585 16.3479 6.95585C16.9724 6.91915 17.0458 7.82954 16.422 7.90292C16.422 7.90292 15.7933 7.97631 15.0965 8.01254L19.2817 20.3737L20.4369 16.5406C20.9375 14.9504 21.3187 13.8081 21.3187 12.8236ZM13.7034 14.4097L10.2287 24.435C11.291 24.7457 12.3928 24.9034 13.5002 24.9035C14.8101 24.9039 16.1106 24.6835 17.3461 24.2515C17.314 24.2013 17.2865 24.1483 17.2638 24.0932L13.7034 14.4097ZM23.6624 7.887C23.7121 8.25323 23.7405 8.64623 23.7405 9.06946C23.7405 10.2362 23.5209 11.5479 22.8596 13.188L19.3222 23.3435C22.7653 21.3498 25.0811 17.6462 25.0811 13.4042C25.0813 11.4048 24.567 9.525 23.6624 7.887ZM13.5002 0C6.05645 0 0 6.01292 0 13.4038C0 20.7958 6.05645 26.8085 13.5002 26.8085C20.944 26.8085 27.0011 20.7958 27.0011 13.4038C27.0011 6.01292 20.944 0 13.5002 0ZM13.5002 26.1939C6.39788 26.1939 0.61894 20.4563 0.61894 13.4038C0.61894 6.35192 6.39764 0.614539 13.5002 0.614539C20.6026 0.614539 26.381 6.35192 26.381 13.4038C26.381 20.4563 20.6026 26.1939 13.5002 26.1939Z" fill="#464342"/>
</svg>
