<svg width="250" height="83" viewBox="0 0 250 83" fill="none" xmlns="http://www.w3.org/2000/svg">
<path d="M110.826 12.7682L132.361 12.9196V12.9719L132.109 19.1232C132.08 19.169 132.062 19.2208 132.056 19.2746H124.962C124.962 21.5442 125.013 28.1979 125.114 39.2358H118.096C118.131 38.3454 118.148 37.8274 118.148 37.6761C118.211 26.937 118.244 20.8032 118.248 19.2746H110.826V12.7682Z" fill="#FF8F00"/>
<path d="M138.87 12.9196L140.437 12.9719C151.012 13.0418 157.143 13.0747 158.831 13.0709V13.1232C158.831 14.3337 158.781 16.4346 158.679 19.4259H145.555V22.3997L155.03 22.551V28.7489L145.555 28.9002C145.454 31.0689 145.403 32.3628 145.403 32.7818C152.874 32.8866 157.418 32.937 159.036 32.9331C159.063 35.1019 159.079 36.6984 159.083 37.7227V38.9855C149.257 39.1523 142.705 39.2358 139.426 39.2358H138.513C138.513 39.1368 138.513 38.8167 138.566 38.2813L138.817 13.9322C138.852 13.4278 138.87 13.0903 138.87 12.9196Z" fill="#FF8F00"/>
<path d="M175.243 12.2736C180.565 12.2736 184.197 14.5257 186.139 19.0301C186.277 19.4253 186.394 19.8274 186.49 20.2348L180.144 22.7023H180.044C179.825 21.5793 179.338 20.5254 178.623 19.6295C177.968 18.9545 176.869 18.6169 175.284 18.6169H175.079C172.681 18.6169 171.059 19.9748 170.213 22.6906C169.972 23.5606 169.854 24.4596 169.862 25.3618C169.862 28.4889 170.673 30.7411 172.295 32.1184C173.057 32.6711 173.984 32.9538 174.927 32.9215C177.375 32.9215 179.013 31.8138 179.84 29.5985C179.953 29.2863 180.039 28.965 180.097 28.6383C184.339 29.6897 186.499 30.2154 186.577 30.2154V30.3143C186.577 31.2862 186.022 32.7352 184.91 34.6499C183.615 36.5672 181.703 37.9893 179.489 38.6829C178.355 39.0513 177.172 39.2475 175.98 39.2648H174.512C171.998 39.2554 169.565 38.3839 167.622 36.7973C166.828 36.0803 166.123 35.2715 165.522 34.388C163.882 31.7505 163.006 28.7136 162.99 25.6121C163.041 22.7698 163.805 19.9853 165.212 17.5112C167.407 14.0194 170.751 12.2736 175.243 12.2736Z" fill="#FF8F00"/>
<path d="M116.253 50.4327V58.9467H112.773V44.9332H115.809L122.886 53.4414V44.9332H126.395V58.9467H123.389L116.253 50.4327Z" fill="#0054DC"/>
<path d="M136.636 44.7236C138.07 44.719 139.474 45.1379 140.669 45.9272C141.865 46.7166 142.798 47.841 143.351 49.1582C143.904 50.4753 144.052 51.9261 143.776 53.327C143.5 54.7279 142.813 56.0159 141.802 57.0281C140.79 58.0404 139.5 58.7313 138.093 59.0136C136.687 59.2959 135.228 59.1569 133.901 58.6141C132.575 58.0713 131.439 57.1491 130.639 55.9642C129.839 54.7792 129.41 53.3849 129.407 51.9574C129.382 51.0042 129.552 50.0559 129.906 49.1698C130.26 48.2837 130.791 47.4783 131.467 46.8022C132.142 46.126 132.949 45.5932 133.837 45.236C134.726 44.8787 135.678 44.7044 136.636 44.7236ZM136.636 55.8972C137.152 55.9067 137.666 55.8103 138.143 55.6139C138.621 55.4176 139.053 55.1256 139.412 54.756C139.771 54.3865 140.05 53.9473 140.232 53.4658C140.413 52.9844 140.493 52.4709 140.467 51.9574C140.467 49.6935 138.917 48 136.636 48C135.61 48.0392 134.639 48.4724 133.927 49.2086C133.215 49.9448 132.817 50.9269 132.817 51.9486C132.817 52.9704 133.215 53.9524 133.927 54.6886C134.639 55.4249 135.61 55.858 136.636 55.8972Z" fill="#0054DC"/>
<path d="M145.017 44.9332H148.83L152.538 55.647L156.352 44.9332H160.182L154.755 58.9467H150.345L145.017 44.9332Z" fill="#0054DC"/>
<path d="M162.311 58.9467V44.9332H173.623V47.9419H165.627V50.3512H172.108V53.261H165.627V55.9205H173.623V58.9293L162.311 58.9467Z" fill="#0054DC"/>
<path d="M176.787 44.9332H183.103C187.268 44.9332 190.373 47.4065 190.373 51.9574C190.373 56.5083 187.268 58.9409 183.103 58.9409H176.787V44.9332ZM180.267 47.9419V55.9205H182.957C185.238 55.9205 186.794 54.4947 186.794 51.9399C186.794 49.3851 185.238 47.9244 182.957 47.9244L180.267 47.9419Z" fill="#0054DC"/>
<path d="M196.918 44.9332H201.012L206.352 58.9467H202.842L201.889 56.3687H195.964L194.994 58.9467H191.484L196.918 44.9332ZM196.836 53.8313H201L198.971 48.3551L196.836 53.8313Z" fill="#0054DC"/>
<path d="M208.533 44.9332H214.85C219.014 44.9332 222.125 47.4065 222.125 51.9574C222.125 56.5083 219.014 58.9409 214.85 58.9409H208.533V44.9332ZM212.013 47.9419V55.9205H214.709C216.984 55.9205 218.54 54.4947 218.54 51.9399C218.54 49.3851 216.984 47.9244 214.709 47.9244L212.013 47.9419Z" fill="#0054DC"/>
<path d="M225.225 58.9467V44.9332H236.536V47.9419H228.541V50.3512H235.022V53.261H228.541V55.9205H236.536V58.9293L225.225 58.9467Z" fill="#0054DC"/>
<path d="M242.169 52.906C239.97 52.324 238.917 51.0495 238.917 49.1116C238.917 46.6848 240.841 44.7469 244.672 44.7469C246.433 44.7386 248.175 45.1182 249.772 45.8584L248.772 48.937C247.489 48.1719 246.027 47.7527 244.531 47.7207C243.099 47.7207 242.455 48.1921 242.455 48.8846C242.455 49.5772 242.87 49.7517 243.742 49.9962L246.233 50.7236C248.824 51.486 250 52.6615 250 54.5995C250 57.2939 247.725 59.1504 244.204 59.1504C242.448 59.1385 240.718 58.7222 239.151 57.9341L239.958 54.8032C241.234 55.6559 242.726 56.1339 244.262 56.1824C245.672 56.1824 246.438 55.6004 246.438 54.8439C246.438 54.227 245.818 53.8953 244.806 53.6043L242.169 52.906Z" fill="#0054DC"/>
<path d="M219.955 73.4317L218.125 76.2891L212.978 65.0864H216.049L219.955 73.4317ZM227.26 65.0747L222.581 76.2251L218.85 68.1766L220.669 65.0747L222.505 69.4103L224.43 65.0747H227.26Z" fill="#24D1DC"/>
<path d="M238.01 67.5597H230.471V65.0457H238.01V67.5597ZM238.01 76.2891H230.471V69.4104H237.987V71.8837H233.595V73.7576H237.987L238.01 76.2891Z" fill="#24D1DC"/>
<path d="M249.819 73.0999C249.834 73.5215 249.744 73.9402 249.557 74.3189C249.371 74.6976 249.093 75.0245 248.748 75.2706C247.842 75.9457 246.409 76.2774 244.403 76.2774H241.28V73.7808H244.38C244.826 73.7931 245.27 73.7139 245.684 73.548C245.836 73.5052 245.97 73.4158 246.068 73.2924C246.165 73.1691 246.221 73.0182 246.228 72.8613C246.22 72.7016 246.164 72.5478 246.069 72.4193C245.973 72.2909 245.841 72.1936 245.69 72.1397C245.277 71.9588 244.83 71.8714 244.38 71.8836H241.28V69.4336H244.35C244.749 69.4439 245.147 69.3767 245.52 69.2357C245.941 69.067 246.175 68.84 246.204 68.5374C246.196 68.3798 246.14 68.2284 246.044 68.1028C245.948 67.9772 245.817 67.8832 245.666 67.8332C245.285 67.6528 244.866 67.5632 244.444 67.5713H241.297V65.034H244.397C246.386 65.034 247.789 65.3657 248.614 66.0175C248.925 66.2754 249.171 66.6026 249.332 66.9726C249.492 67.3427 249.563 67.7452 249.538 68.1475C249.57 68.664 249.478 69.1807 249.269 69.6547C249.001 70.0705 248.625 70.4063 248.181 70.6266C248.677 70.8458 249.108 71.1885 249.433 71.6218C249.711 72.0635 249.845 72.5795 249.819 73.0999Z" fill="#24D1DC"/>
<path d="M114.674 72.3958H209.504L208.662 70.2949H114.674V72.3958Z" fill="#24D1DC"/>
<path d="M114.674 73.9089C116.099 73.9089 117.253 72.7599 117.253 71.3425C117.253 69.9251 116.099 68.776 114.674 68.776C113.25 68.776 112.095 69.9251 112.095 71.3425C112.095 72.7599 113.25 73.9089 114.674 73.9089Z" fill="#24D1DC"/>
<path d="M52.5617 51.4627C64.259 48.8613 72.3067 43.4724 77.3834 38.7818C75.6274 37.0481 73.7058 35.4888 71.6458 34.1261L65.2123 30.1455L72.6226 28.5684C77.0146 27.7292 81.2578 26.2486 85.2147 24.1746C80.9839 14.9898 73.5267 7.6592 64.2453 3.56141C54.9638 -0.536376 44.4976 -1.11909 34.8146 1.92286C25.1317 4.9648 16.8992 11.4218 11.6651 20.0797C6.43102 28.7377 4.55599 39 6.3926 48.937C15.1129 52.9525 31.8108 56.0835 52.5617 51.4627Z" fill="url(#paint0_linear_9:74)"/>
<path d="M79.6995 25.5772C79.6059 24.9952 79.5532 24.5936 79.4714 24.1863C79.2784 23.2028 78.9976 22.9874 78.0092 22.9642C77.3392 23.0152 76.6653 22.9682 76.009 22.8245C73.9795 22.1378 71.9851 21.3347 69.9732 20.5839C69.4468 20.3861 68.9146 20.1998 68.2712 19.9729C68.9004 21.3072 69.8506 22.4666 71.0376 23.3482C71.1603 23.4539 71.3037 23.5331 71.4587 23.5806C71.6138 23.6282 71.7771 23.6432 71.9382 23.6246C72.0994 23.606 72.2549 23.5542 72.3949 23.4726C72.5349 23.3909 72.6562 23.2812 72.7513 23.1504C72.9151 22.9583 73.0554 22.743 73.3362 22.3415C74.114 23.2028 74.8451 23.9884 75.5528 24.7973C76.0939 25.656 76.4263 26.6284 76.5237 27.6373C78.6546 27.0445 80.7385 26.2956 82.7583 25.3967C82.3723 24.1223 81.922 22.5684 81.5886 21.4918C82.5828 21.9224 82.4425 22.8478 82.7583 23.5636C83.0192 24.063 83.3414 24.5282 83.7175 24.9486C84.2439 24.6926 84.741 24.4423 85.203 24.1921C83.9977 21.5905 82.5258 19.1196 80.8107 16.8187C81.1558 19.4899 81.1441 23.3308 79.6995 25.5772Z" fill="url(#paint1_linear_9:74)"/>
<path d="M66.154 28.4811C64.9843 26.8749 63.7795 25.292 62.5103 23.7614C61.6668 22.7736 60.7686 21.8332 59.8199 20.9448C59.6386 20.776 59.2351 20.8458 58.9309 20.8051C58.9292 21.0322 59.0078 21.2527 59.1532 21.4278C59.8375 22.2542 60.592 23.0282 61.1944 23.9069C62.6097 25.9496 63.9432 28.0447 65.3527 30.0873L67.4465 29.6567C67.0196 29.2377 66.3587 28.7605 66.154 28.4811Z" fill="url(#paint2_linear_9:74)"/>
<path d="M66.8089 32.1417C67.2576 32.8376 67.9044 33.3848 68.6669 33.7134C69.4294 34.0419 70.273 34.137 71.0901 33.9865C71.1718 33.9647 71.2519 33.9375 71.3299 33.905L65.5105 30.3143C65.9433 30.937 66.3702 31.5481 66.8089 32.1417Z" fill="url(#paint3_linear_9:74)"/>
<path d="M71.5816 39.8235C70.5814 40.452 69.4819 40.9351 68.5286 41.6218C67.6751 42.2182 66.9685 42.9993 66.462 43.9065C65.9555 44.8137 65.6623 45.8233 65.6042 46.8594C69.8942 44.7338 73.86 42.0143 77.3834 38.7818C76.2141 37.6404 74.9841 36.5623 73.6988 35.5519C73.3069 36.6402 72.8039 38.0078 72.4179 38.9273C72.2326 39.3006 71.942 39.612 71.5816 39.8235Z" fill="url(#paint4_linear_9:74)"/>
<path d="M6.90736 33.3929C7.17484 34.0777 7.52021 34.7299 7.93672 35.3366C9.5334 37.0825 10.5803 38.9971 9.83753 41.4355L10.5394 40.9351C10.6505 41.2668 10.7616 41.5985 10.8493 41.8371C11.1418 41.7207 11.6038 41.4239 11.6974 41.517C12.1734 42.0205 12.615 42.5552 13.0192 43.1174C13.3951 42.9645 13.8011 42.8987 14.2064 42.9249C14.6117 42.9511 15.0057 43.0687 15.3586 43.2687C15.9026 43.6528 16.4289 44.066 16.9612 44.4676C17.5917 44.8629 18.0551 45.474 18.2641 46.1858C18.4731 46.8976 18.4133 47.6609 18.0958 48.3318C17.7039 49.3909 17.0664 50.9564 16.5869 52.2018C24.1374 53.8196 33.8871 54.4598 45.1107 52.8536C45.1107 52.8129 45.1107 52.7896 45.1107 52.7896C45.3754 52.2461 45.5058 51.6475 45.4908 51.0437C45.1458 48.9603 44.4907 46.97 43.0344 45.358C42.676 44.9786 42.4059 44.5255 42.2432 44.0307C42.0805 43.5358 42.0291 43.0115 42.0928 42.4947C42.0928 42.2037 42.0928 41.9128 42.0928 41.6101C42.1337 40.1029 41.3558 39.1194 39.8937 39.1252C39.6771 39.1157 39.4647 39.0623 39.2696 38.9683C39.0745 38.8742 38.9007 38.7414 38.759 38.5781C38.5642 38.2861 38.2873 38.0575 37.9628 37.9209C37.6383 37.7843 37.2806 37.7457 36.9343 37.8099C36.1389 37.9089 35.361 38.1475 34.5948 38.3162C33.3023 38.6713 31.9873 38.9397 30.6587 39.1193C27.863 39.323 25.1376 38.5374 23.9327 35.1853C23.594 34.4952 23.203 33.8318 22.763 33.2008C22.59 32.922 22.4932 32.603 22.4823 32.2755C22.709 29.9778 23.3012 27.7306 24.2369 25.6179C24.9719 23.717 26.4273 22.1791 28.29 21.3347C28.7103 21.1535 29.0886 20.888 29.4012 20.5548C30.2142 19.6063 30.957 18.5936 31.7407 17.6101C31.9654 17.2414 32.2775 16.9329 32.6496 16.7118C33.0217 16.4906 33.4426 16.3635 33.8754 16.3415C36.1113 16.2929 38.3369 16.0239 40.5195 15.5384C41.8165 15.3067 43.153 15.446 44.3737 15.9399C44.1047 17.3599 44.6135 18.0757 45.9646 18.4132C46.6063 18.5919 47.2371 18.8076 47.8537 19.0592C48.31 19.2928 48.7855 19.4875 49.2749 19.6412C49.4267 19.6499 49.5784 19.621 49.7162 19.557C49.854 19.493 49.9737 19.3959 50.0645 19.2745C50.509 18.3376 50.7721 18.1572 51.784 18.4191C52.9537 18.7333 54.1644 19.1174 55.3692 19.3909C55.9705 19.5501 56.5989 19.5806 57.2128 19.4803C57.8268 19.38 58.4124 19.1511 58.931 18.809C59.4866 18.4365 60.0305 17.9942 59.8551 17.2551C59.7714 16.9137 59.5838 16.6063 59.3179 16.3751C59.052 16.1438 58.7208 16 58.3695 15.9632C57.5975 15.8468 56.8138 15.7711 56.0301 15.6547C54.8019 15.4685 53.6555 15.1484 52.9771 13.9612C52.8952 13.8216 52.5794 13.6586 52.4916 13.711C52.4085 13.772 52.339 13.8495 52.2876 13.9387C52.2362 14.0279 52.2042 14.1267 52.1934 14.2289C52.2261 14.4344 52.2975 14.6318 52.4039 14.8109C52.6496 15.3929 52.2811 15.9341 51.6494 15.7886C51.3032 15.6763 50.9927 15.4757 50.7487 15.2066C49.9767 14.4268 49.2983 13.5539 48.4736 12.8381C47.6439 12.1863 46.7789 11.5802 45.8827 11.0224C46.2394 13.0243 48.1461 13.6703 49.1053 14.9913L48.111 15.6897C46.6839 14.3512 45.3271 13.065 43.9351 11.8138C43.7772 11.6683 43.438 11.6974 43.1806 11.6683C40.9932 11.453 39.6012 13.0127 38.1625 14.1708C37.4434 14.7614 36.5871 15.1635 35.6717 15.3403C34.7564 15.5172 33.8111 15.4632 32.9221 15.1834C31.4599 14.8284 31.3547 14.5432 31.7524 13.0999C31.7524 12.9661 31.8226 12.8381 31.8576 12.71C32.2378 11.389 32.9864 10.743 34.3726 10.7896C35.2732 10.8187 36.1622 11.1096 37.0688 11.226C37.4615 11.2308 37.8537 11.1937 38.2385 11.1155C38.1859 10.6615 38.1508 10.2076 38.0806 9.7595C38.0806 9.64893 37.9402 9.54999 37.8291 9.4045L38.3789 9.15426L42.508 7.33273L44.3503 6.53545L44.6428 5.86037L44.8475 5.41226C44.7831 5.56939 44.713 5.7207 44.6486 5.86619L45.3622 6.54126L45.7131 6.19209L45.5201 6.62856C47.3858 7.52478 48.3333 6.2852 49.31 5.12128C49.386 5.03399 49.5381 4.95833 49.5381 4.87686C49.5381 4.24253 50.006 4.17269 50.4271 4.01556L51.4213 3.64893C51.4213 3.57327 51.3687 3.49762 51.3395 3.42196C50.9184 3.55581 50.4914 3.68384 50.0762 3.82933C49.1345 4.12613 48.9825 4.0563 48.7544 3.03787C48.2455 3.54417 47.3741 3.73622 47.8595 4.78375C47.9823 5.05727 47.6665 5.65669 47.3858 5.94767C47.2395 6.05412 47.0704 6.1253 46.8918 6.15559C46.7131 6.18589 46.5299 6.17448 46.3564 6.12225C45.6785 5.77394 45.0222 5.38526 44.3913 4.95834C43.8532 4.62662 43.9292 4.30654 44.3913 3.99228C46.6605 2.47337 49.2223 1.99034 51.8775 1.7983L51.474 1.96706C52.2694 2.28132 53.3806 1.3851 54.2755 0.628557C43.6516 -1.15319 32.7472 1.23145 23.8532 7.28147C14.9592 13.3315 8.76782 22.576 6.57983 33.0728C6.7005 33.1672 6.81034 33.2745 6.90736 33.3929ZM46.2102 14.7993C46.4149 14.9506 46.3798 15.4103 46.4558 15.7246L46.1985 15.8352L44.1632 14.6014C44.4904 14.4469 44.8537 14.3836 45.2142 14.4185C45.5747 14.4533 45.919 14.585 46.2102 14.7993ZM43.2859 12.8846L44.1807 13.4666C43.707 13.9147 43.3912 14.2289 43.0461 14.5083C43.0461 14.5083 42.625 14.1824 42.6542 14.1067C42.8417 13.688 43.0526 13.2799 43.2859 12.8846ZM39.11 4.97579C40.2329 3.81188 40.2329 3.81187 41.0225 4.21343C40.8229 4.58148 40.7079 4.989 40.6856 5.40662C40.6634 5.82424 40.7345 6.24157 40.8938 6.62856C40.9874 6.94282 40.5136 7.66445 40.1452 7.79248C39.2631 8.06398 38.359 8.2587 37.4431 8.37444C37.5355 8.21391 37.6475 8.06536 37.7765 7.93215C38.0806 7.71682 38.5309 7.77502 38.49 7.09995C38.49 6.72749 39.1275 6.3143 39.5603 5.82545C39.4667 5.67415 39.2913 5.33079 39.11 4.97579ZM37.8876 5.70324C38.0046 5.59267 38.3555 5.70324 38.7473 5.75562C37.9812 6.91954 37.2618 7.74592 35.94 7.94961C35.9517 6.6111 37.1858 6.36668 37.8876 5.70324Z" fill="url(#paint5_linear_9:74)"/>
<path d="M48.8596 77.7906C38.6362 77.7906 28.3893 76.0098 19.71 72.4773C26.9957 78.9263 36.3261 82.6246 46.0727 82.9267C55.8193 83.2288 65.3629 80.1154 73.0378 74.13C69.2863 75.3741 65.4331 76.2912 61.5219 76.8711C57.3301 77.4915 53.0975 77.7988 48.8596 77.7906Z" fill="url(#paint6_linear_9:74)"/>
<path d="M94.7538 20.2639C94.7538 20.2639 89.7824 28.132 73.2308 31.5364C76.3362 33.6013 79.1644 36.0517 81.647 38.8284C75.2135 45.5384 65.7504 51.6315 53.2226 54.4016C27.2663 60.1805 7.15873 54.3492 0 48.582C4.44496 69.1077 35.355 77.7324 61.0656 73.874C79.1262 71.162 89.1391 62.5258 93.0167 58.4113C93.8641 61.0956 94.492 63.8436 94.8941 66.6286C94.8941 66.6286 106.662 41.5985 94.7538 20.2639Z" fill="url(#paint7_linear_9:74)"/>
<path style="mix-blend-mode:overlay" opacity="0.4" d="M0.00585938 48.5937C7.15874 54.3492 27.2664 60.1805 53.2285 54.4133C65.7562 51.6257 75.2252 45.55 81.6528 38.84C79.1692 36.0589 76.339 33.6046 73.2308 31.5364C89.7824 28.132 94.7538 20.2639 94.7538 20.2639C94.7538 20.2639 99.4327 42.9137 77.05 54.7682C54.6672 66.6228 19.1309 65.0689 0.00585938 48.5937Z" fill="url(#paint8_linear_9:74)"/>
<defs>
<linearGradient id="paint0_linear_9:74" x1="56.7611" y1="-1.21043" x2="27.1815" y2="78.9748" gradientUnits="userSpaceOnUse">
<stop offset="0.09" stop-color="#B5E3FF"/>
<stop offset="0.24" stop-color="#B1E2FF"/>
<stop offset="0.37" stop-color="#A6DFFD"/>
<stop offset="0.5" stop-color="#93DAFB"/>
<stop offset="0.63" stop-color="#78D3F7"/>
<stop offset="0.76" stop-color="#56C9F3"/>
<stop offset="0.89" stop-color="#2DBEEE"/>
<stop offset="1" stop-color="#00B2E8"/>
</linearGradient>
<linearGradient id="paint1_linear_9:74" x1="82.1091" y1="5.76726" x2="56.1245" y2="85.5431" gradientUnits="userSpaceOnUse">
<stop offset="0.09" stop-color="#00CDFF"/>
<stop offset="0.24" stop-color="#00C6FF"/>
<stop offset="0.44" stop-color="#00B3FF"/>
<stop offset="0.69" stop-color="#0094FF"/>
<stop offset="0.96" stop-color="#006AFF"/>
<stop offset="1" stop-color="#0063FF"/>
</linearGradient>
<linearGradient id="paint2_linear_9:74" x1="1089.75" y1="53.2001" x2="644.276" y2="1301.67" gradientUnits="userSpaceOnUse">
<stop offset="0.09" stop-color="#00CDFF"/>
<stop offset="0.24" stop-color="#00C6FF"/>
<stop offset="0.44" stop-color="#00B3FF"/>
<stop offset="0.69" stop-color="#0094FF"/>
<stop offset="0.96" stop-color="#006AFF"/>
<stop offset="1" stop-color="#0063FF"/>
</linearGradient>
<linearGradient id="paint3_linear_9:74" x1="837.396" y1="57.5914" x2="723.052" y2="600.862" gradientUnits="userSpaceOnUse">
<stop offset="0.09" stop-color="#00CDFF"/>
<stop offset="0.24" stop-color="#00C6FF"/>
<stop offset="0.44" stop-color="#00B3FF"/>
<stop offset="0.69" stop-color="#0094FF"/>
<stop offset="0.96" stop-color="#006AFF"/>
<stop offset="1" stop-color="#0063FF"/>
</linearGradient>
<linearGradient id="paint4_linear_9:74" x1="1745.67" y1="154.959" x2="1255.33" y2="1715.37" gradientUnits="userSpaceOnUse">
<stop offset="0.09" stop-color="#00CDFF"/>
<stop offset="0.24" stop-color="#00C6FF"/>
<stop offset="0.44" stop-color="#00B3FF"/>
<stop offset="0.69" stop-color="#0094FF"/>
<stop offset="0.96" stop-color="#006AFF"/>
<stop offset="1" stop-color="#0063FF"/>
</linearGradient>
<linearGradient id="paint5_linear_9:74" x1="3982.88" y1="-629.686" x2="1558.15" y2="6718.1" gradientUnits="userSpaceOnUse">
<stop offset="0.09" stop-color="#00CDFF"/>
<stop offset="0.24" stop-color="#00C6FF"/>
<stop offset="0.44" stop-color="#00B3FF"/>
<stop offset="0.69" stop-color="#0094FF"/>
<stop offset="0.96" stop-color="#006AFF"/>
<stop offset="1" stop-color="#0063FF"/>
</linearGradient>
<linearGradient id="paint6_linear_9:74" x1="6392.93" y1="103.781" x2="6291.3" y2="1684.76" gradientUnits="userSpaceOnUse">
<stop offset="0.09" stop-color="#00CDFF"/>
<stop offset="0.24" stop-color="#00C6FF"/>
<stop offset="0.44" stop-color="#00B3FF"/>
<stop offset="0.69" stop-color="#0094FF"/>
<stop offset="0.96" stop-color="#006AFF"/>
<stop offset="1" stop-color="#0063FF"/>
</linearGradient>
<linearGradient id="paint7_linear_9:74" x1="98.0407" y1="17.5054" x2="22.5999" y2="77.9239" gradientUnits="userSpaceOnUse">
<stop offset="0.02" stop-color="#FFF500"/>
<stop offset="0.36" stop-color="#FFCC00"/>
<stop offset="0.47" stop-color="#FFC000"/>
<stop offset="0.66" stop-color="#FF9F00"/>
<stop offset="0.92" stop-color="#FF6A00"/>
<stop offset="0.99" stop-color="#FF5A00"/>
</linearGradient>
<linearGradient id="paint8_linear_9:74" x1="0.00585938" y1="41.3832" x2="95.1866" y2="41.3832" gradientUnits="userSpaceOnUse">
<stop stop-color="#FFFF00" stop-opacity="0"/>
<stop offset="1" stop-color="#FFFF00"/>
</linearGradient>
</defs>
</svg>
